HIERARCHY
ROOT joint_Root
{
	OFFSET 0.0 0.0 0.0
	CHANNELS 6 Xposition Yposition Zposition Zrotation Xrotation Yrotation 
	JOINT Hips
	{
		OFFSET -0.726466 93.3139 -2.00062
		CHANNELS 6 Xposition Yposition Zposition Zrotation Xrotation Yrotation 
		JOINT Spine
		{
			OFFSET 15.7357 0.0 0.0
			CHANNELS 6 Xposition Yposition Zposition Zrotation Xrotation Yrotation 
			JOINT Chest
			{
				OFFSET 8.98455 -0.406207 0.0
				CHANNELS 6 Xposition Yposition Zposition Zrotation Xrotation Yrotation 
				JOINT Neck
				{
					OFFSET 16.3773 0.0 0.0
					CHANNELS 6 Xposition Yposition Zposition Zrotation Xrotation Yrotation 
					JOINT Head
					{
						OFFSET 6.45672 0.0 0.0
						CHANNELS 6 Xposition Yposition Zposition Zrotation Xrotation Yrotation 
						End Site
						{
							OFFSET 0.0 0.0 0.0
						}
					}
				}
				JOINT Shoulder_L
				{
					OFFSET 12.9942 -0.242716 4.98039
					CHANNELS 6 Xposition Yposition Zposition Zrotation Xrotation Yrotation 
					JOINT UpperArm_L
					{
						OFFSET 5.34809 0.0 0.0
						CHANNELS 6 Xposition Yposition Zposition Zrotation Xrotation Yrotation 
						JOINT LowerArm_L
						{
							OFFSET 24.3286 1.87007e-05 0.0
							CHANNELS 6 Xposition Yposition Zposition Zrotation Xrotation Yrotation 
							JOINT Hand_L
							{
								OFFSET 22.2916 0.0 0.0
								CHANNELS 6 Xposition Yposition Zposition Zrotation Xrotation Yrotation 
								End Site
								{
									OFFSET 0.0 0.0 0.0
								}
							}
						}
					}
				}
				JOINT Shoulder_R
				{
					OFFSET 12.9945 -0.242716 -4.98039
					CHANNELS 6 Xposition Yposition Zposition Zrotation Xrotation Yrotation 
					JOINT UpperArm_R
					{
						OFFSET -5.34813 0.0 0.0
						CHANNELS 6 Xposition Yposition Zposition Zrotation Xrotation Yrotation 
						JOINT LowerArm_R
						{
							OFFSET -24.3289 0.000322201 0.0
							CHANNELS 6 Xposition Yposition Zposition Zrotation Xrotation Yrotation 
							JOINT Hand_R
							{
								OFFSET -22.2915 -0.000108084 0.0
								CHANNELS 6 Xposition Yposition Zposition Zrotation Xrotation Yrotation 
								End Site
								{
									OFFSET 0.0 0.0 0.0
								}
							}
						}
					}
				}
			}
		}
		JOINT UpperLeg_L
		{
			OFFSET -2.19248 -6.46944 0.0
			CHANNELS 6 Xposition Yposition Zposition Zrotation Xrotation Yrotation 
			JOINT LowerLeg_L
			{
				OFFSET 39.0811 0.0 -1.23785e-05
				CHANNELS 6 Xposition Yposition Zposition Zrotation Xrotation Yrotation 
				JOINT Foot_L
				{
					OFFSET 40.9854 0.0 -1.26872e-05
					CHANNELS 6 Xposition Yposition Zposition Zrotation Xrotation Yrotation 
					JOINT Toes_L
					{
						OFFSET 11.7543 0.0 0.0
						CHANNELS 6 Xposition Yposition Zposition Zrotation Xrotation Yrotation 
						End Site
						{
							OFFSET 0.0 0.0 0.0
						}
					}
				}
			}
		}
		JOINT UpperLeg_R
		{
			OFFSET -2.19251 6.46944 0.0
			CHANNELS 6 Xposition Yposition Zposition Zrotation Xrotation Yrotation 
			JOINT LowerLeg_R
			{
				OFFSET -39.0811 -0.00228153 -0.0401928
				CHANNELS 6 Xposition Yposition Zposition Zrotation Xrotation Yrotation 
				JOINT Foot_R
				{
					OFFSET -40.9854 0.0 0.0
					CHANNELS 6 Xposition Yposition Zposition Zrotation Xrotation Yrotation 
					JOINT Toes_R
					{
						OFFSET -11.7543 0.0 0.0
						CHANNELS 6 Xposition Yposition Zposition Zrotation Xrotation Yrotation 
						End Site
						{
							OFFSET 0.0 0.0 0.0
						}
					}
				}
			}
		}
	}
}
MOTION
Frames:	4
Frame Time:	0.0333333
0.000000 0.000000 0.000000 0.000000 0.000000 -0.000000 -2.048450 93.656200 53.777000 -86.374700 -6.653710 170.714000 15.735700 0.000005 -0.000001 62.608700 80.372200 -59.542700 8.984550 -0.406207 -0.000000 9.657780 -8.757300 6.878080 16.377300 -0.000001 -0.000001 5.166840 -1.972210 -1.305460 6.456720 -0.000001 -0.000000 -2.823750 3.663340 -3.049090 12.994200 -0.242716 4.980390 -87.295300 -7.920150 -71.076300 5.348090 -0.000007 -0.000001 -63.059300 18.902800 -21.504300 24.328600 0.000019 0.000005 -5.912020 -1.570380 -75.176900 22.291600 -0.000001 0.000005 0.349918 5.637120 -13.889200 12.994500 -0.242716 -4.980390 89.839000 0.321138 -63.378800 -5.348130 -0.000001 -0.000004 -66.399100 29.153700 11.709200 -24.328900 0.000322 -0.000009 4.107160 2.802010 -55.761700 -22.291500 -0.000108 -0.000004 -0.292757 5.613360 -12.175400 -2.192480 -6.469440 -0.000000 -168.421000 -5.969040 9.276640 39.081100 -0.000007 -0.000012 0.038770 -0.080537 25.706000 40.985400 -0.000006 -0.000013 -3.398480 1.856960 -34.592500 11.754300 -0.000000 0.000003 -0.006927 -0.079042 -19.794500 -2.192510 6.469440 -0.000001 -171.468000 10.141400 142.133000 -39.081100 -0.002282 -0.040193 -0.001980 0.008542 31.710400 -40.985400 0.000008 0.000006 -0.698064 -0.530414 -64.544000 -11.754300 -0.000006 -0.000006 -0.023736 -0.187167 -24.227800
0.000000 0.000000 0.000000 0.000000 0.000000 -0.000000 -2.169810 92.901500 43.661400 -88.911300 -7.430640 171.035000 15.735700 0.000005 -0.000001 59.168600 80.190000 -56.611600 8.984550 -0.406207 -0.000000 9.416100 -9.963550 5.942680 16.377300 -0.000001 -0.000001 5.070940 -2.219730 -1.373430 6.456720 -0.000001 -0.000000 -2.443180 3.910020 -3.428460 12.994200 -0.242716 4.980390 -87.408000 -7.756140 -71.456600 5.348090 -0.000007 -0.000001 -64.660900 20.575000 -18.115300 24.328600 0.000019 0.000005 -5.155280 -1.612030 -72.678100 22.291600 -0.000001 0.000005 1.312700 5.642190 -14.307400 12.994500 -0.242716 -4.980390 89.522200 0.935333 -62.940200 -5.348130 -0.000001 -0.000004 -63.643200 30.971300 8.951340 -24.328900 0.000322 -0.000009 4.067230 2.781080 -55.700200 -22.291500 -0.000108 -0.000004 -0.423057 5.616090 -12.355400 -2.192480 -6.469440 -0.000000 -171.888000 -1.243670 10.407900 39.081100 -0.000007 -0.000012 0.038804 -0.057649 33.943800 40.985400 -0.000006 -0.000013 1.388750 -8.644610 -38.504000 11.754300 -0.000000 0.000003 -0.006178 -0.072453 -19.525700 -2.192510 6.469440 -0.000001 -174.145000 11.784800 145.506000 -39.081100 -0.002282 -0.040193 -0.026946 0.092240 18.168600 -40.985400 0.000008 0.000006 -5.081380 0.678145 -66.951700 -11.754300 -0.000006 -0.000006 -0.026392 -0.200425 -24.776000
0.000000 0.000000 0.000000 0.000000 0.000000 -0.000000 -2.126990 91.242800 33.480200 -90.493900 -6.746600 172.072000 15.735700 0.000005 -0.000001 61.802500 80.216000 -59.676700 8.984550 -0.406207 -0.000000 9.746440 -9.155120 5.037770 16.377300 -0.000001 -0.000001 5.256920 -2.777940 -1.520420 6.456720 -0.000001 -0.000000 -2.722460 3.388520 -3.556880 12.994200 -0.242716 4.980390 -87.744600 -6.966790 -72.011100 5.348090 -0.000007 -0.000001 -65.345600 22.496600 -15.496300 24.328600 0.000019 0.000005 -3.541430 -1.433900 -67.977400 22.291600 -0.000001 0.000005 1.473220 5.645340 -14.585200 12.994500 -0.242716 -4.980390 88.974400 2.004010 -62.889800 -5.348130 -0.000001 -0.000004 -60.367700 30.499400 5.048460 -24.328900 0.000322 -0.000009 3.537400 2.420630 -55.667800 -22.291500 -0.000108 -0.000004 -0.052724 5.618970 -12.549000 -2.192480 -6.469440 -0.000000 -174.784000 0.197812 10.377300 39.081100 -0.000007 -0.000012 0.049486 -0.047286 46.300200 40.985400 -0.000006 -0.000013 7.453240 -12.220100 -38.761700 11.754300 -0.000000 0.000003 -0.006440 -0.074788 -19.620900 -2.192510 6.469440 -0.000001 -174.094000 14.097200 145.909000 -39.081100 -0.002282 -0.040193 -0.031253 0.098271 19.383700 -40.985400 0.000008 0.000006 -6.214170 -2.366360 -70.121100 -11.754300 -0.000006 -0.000006 -0.025098 -0.194049 -24.512200
0.000000 0.000000 0.000000 0.000000 0.000000 -0.000000 -1.849060 88.701900 23.501900 -87.804400 -4.510060 173.825000 15.735700 0.000005 -0.000001 70.772000 80.145700 -67.874300 8.984550 -0.406207 -0.000000 11.061900 -6.359230 6.413940 16.377300 -0.000001 -0.000001 5.250490 -2.511270 -1.803280 6.456720 -0.000001 -0.000000 -3.894480 2.650880 -3.612980 12.994200 -0.242716 4.980390 -87.996300 -6.123460 -71.841000 5.348090 -0.000007 -0.000001 -65.861700 24.412400 -12.458500 24.328600 0.000019 0.000005 -2.734060 -1.419300 -62.581900 22.291600 -0.000001 0.000005 1.181730 5.641730 -14.268800 12.994500 -0.242716 -4.980390 88.626400 2.805500 -63.899400 -5.348130 -0.000001 -0.000004 -56.212700 28.854500 -0.847527 -24.328900 0.000322 -0.000009 3.043790 1.996490 -56.781200 -22.291500 -0.000108 -0.000004 0.575919 5.623620 -12.870900 -2.192480 -6.469440 -0.000000 -171.889000 -2.928240 6.511160 39.081100 -0.000007 -0.000012 0.082826 -0.038995 64.785800 40.985400 -0.000006 -0.000013 6.856150 -11.473500 -37.789300 11.754300 -0.000000 0.000003 -0.005843 -0.069416 -19.401800 -2.192510 6.469440 -0.000001 -169.766000 12.932800 143.236000 -39.081100 -0.002282 -0.040193 0.209683 -0.316627 33.098000 -40.985400 0.000008 0.000006 6.841300 -1.137920 -62.652500 -11.754300 -0.000006 -0.000006 -0.036310 -0.245052 -26.629400
